<?xml version="1.0" encoding="utf-8"?>
<!-- Generator: Adobe Illustrator 25.2.3, SVG Export Plug-In . SVG Version: 6.00 Build 0)  -->
<svg version="1.1" id="Layer_1" xmlns="http://www.w3.org/2000/svg" xmlns:xlink="http://www.w3.org/1999/xlink" x="0px" y="0px"
	 viewBox="0 0 100 100" style="enable-background:new 0 0 100 100;" xml:space="preserve">
<style type="text/css">
	.st0{fill:#0D2127;}
</style>
<path class="st0" d="M50.41,17.21c5.49,0,10.97-0.07,16.46,0.02c4.61,0.08,7.49,2.81,7.49,6.86c0,3.93-2.48,6.27-7.19,6.64
	c-1.82,0.14-3.68,0.23-5.48,0.02c-3.45-0.39-4.62,0.91-4.57,4.44c0.18,12.3,0.07,24.6,0.07,36.91c0,1.33,0.05,2.67-0.06,3.99
	c-0.38,4.6-2.8,6.98-6.89,6.84c-3.64-0.12-6.11-2.73-6.16-7c-0.12-9.31-0.06-18.62-0.07-27.93c0-4.49-0.12-8.98,0.05-13.47
	c0.1-2.74-0.73-4.04-3.65-3.77c-1.98,0.18-3.99,0.1-5.98,0.01c-5.11-0.24-8.03-2.87-7.91-7.06c0.1-3.79,3.19-6.41,7.94-6.48
	C39.77,17.14,45.09,17.21,50.41,17.21z"/>
</svg>
