<?xml version="1.0" encoding="utf-8"?>
<!-- Generator: Adobe Illustrator 25.2.3, SVG Export Plug-In . SVG Version: 6.00 Build 0)  -->
<svg version="1.1" id="Layer_1" xmlns="http://www.w3.org/2000/svg" xmlns:xlink="http://www.w3.org/1999/xlink" x="0px" y="0px"
	 viewBox="0 0 800 100" style="enable-background:new 0 0 800 100;" xml:space="preserve">
<style type="text/css">
	.st0{fill:#092027;}
	.st1{fill:#0A2128;}
	.st2{fill:#0A2127;}
	.st3{fill:#0A2027;}
	.st4{fill:none;}
</style>
<g>
	<g>
		<path class="st0" d="M734,56.59c0,6.16,0.06,12.32-0.02,18.48c-0.06,5.23-2.5,8.03-6.79,8.03c-3.95,0.01-6.52-2.77-6.61-7.75
			c-0.16-8.99-0.07-17.98-0.09-26.97c0-3,0.11-6-0.03-8.99c-0.3-6.26-3.03-9.23-8.17-9.09c-5.02,0.13-7.52,2.91-7.59,9.05
			c-0.13,10.99-0.04,21.98-0.07,32.97c-0.01,1.65-0.02,3.35-0.36,4.96c-0.86,4.12-3.64,6.21-7.4,5.79
			c-3.47-0.39-5.71-2.88-5.76-6.92c-0.1-9.32-0.04-18.65-0.05-27.98c0-3.16,0.14-6.34-0.07-9.49c-0.37-5.54-3.56-8.61-8.44-8.39
			c-4.88,0.21-7.56,2.98-7.64,8.62c-0.16,11.32-0.06,22.65-0.09,33.97c0,1.82,0.12,3.65-0.45,5.45c-1.11,3.52-3.04,4.97-6.61,4.76
			c-3.23-0.19-5.21-1.9-5.89-5.08c-0.17-0.81-0.46-1.63-0.45-2.45c0.11-13.15-0.45-26.29,0.31-39.44
			c0.89-15.43,18.9-24.67,32.29-16.12c2.8,1.78,4.51,1.75,7.35,0.03c14.29-8.65,31.73,0.81,32.53,17.58
			c0.3,6.31,0.05,12.65,0.05,18.98C733.97,56.59,733.98,56.59,734,56.59z"/>
		<path class="st0" d="M204.87,43.53c0,5.83,0.06,11.66-0.01,17.49c-0.11,8.33-3.72,14.77-11.03,18.79
			c-7.29,4.01-14.8,3.75-21.78-0.65c-2.75-1.74-4.35-1.52-6.95,0.14c-12.61,8.02-29.29,0.61-32.24-14.09
			c-0.63-3.14-0.58-6.29-0.58-9.45c0-9.99,0-19.99,0-29.98c0-1.84-0.02-3.65,0.78-5.38c1.27-2.74,3.52-4.06,6.39-3.93
			c2.65,0.13,4.6,1.53,5.65,4.19c0.76,1.94,0.79,3.88,0.8,5.88c0.01,11.33-0.03,22.65,0.05,33.98c0.03,4.69,1.63,6.94,5.23,8.05
			c5.68,1.75,10.45-1.45,10.72-7.57c0.27-6.15,0.08-12.32,0.09-18.48c0.01-6.5-0.13-13,0.08-19.48c0.13-4.18,2.84-6.62,6.64-6.62
			c3.4,0.01,5.97,2.52,6.42,6.39c0.15,1.32,0.1,2.66,0.1,3.99c0.01,10.16-0.02,20.32,0.02,30.47c0.01,1.82,0.09,3.68,0.45,5.45
			c0.87,4.29,3.88,6.48,8.26,6.23c4.37-0.25,7.09-2.76,7.16-7.29c0.17-11.49,0.1-22.98,0.16-34.47c0.01-1.65-0.01-3.36,0.34-4.95
			c0.84-3.79,3.75-6.13,6.98-5.89c3.44,0.25,6.16,3.2,6.24,7.21C204.97,30.2,204.87,36.87,204.87,43.53z"/>
		<path class="st0" d="M504.56,58.43c1.5,15.03-2.93,19.48-18.14,23.15c-22.72,5.47-38.98-13.45-39.56-29.19
			c-0.48-12.85,3.98-23.24,14.8-30.23c10.77-6.96,22.18-7.33,33.62-1.33c4.14,2.17,5.55,5.78,3.91,9.45
			c-1.62,3.61-5.26,4.76-9.76,2.62c-7.71-3.66-15.1-3.68-22.12,1.45c-7.57,5.53-9.44,17.69-4.16,26.15
			c4.85,7.78,16.64,10.92,24.78,6.62c2.91-1.54,4.1-4.52,3.13-7.52c-0.46-1.43-1.48-1.59-2.71-1.62c-1.5-0.03-3.03,0.05-4.48-0.22
			c-3.17-0.59-4.91-3.03-4.98-6.47c-0.07-3.29,1.43-5.54,4.59-6.19c5.09-1.05,10.27-1,15.39-0.1c3.63,0.64,5.31,3.29,5.65,6.7
			C504.77,54.31,504.56,57,504.56,58.43z"/>
		<path class="st0" d="M276.06,16.71c6.4,0.05,12.13,2.01,17.09,6.05c3.87,3.15,4.65,7.24,2.15,10.45
			c-2.45,3.13-6.18,3.39-10.14,0.33c-4-3.09-8.34-3.94-13.16-2.9c-2.85,0.61-4.92,2-5.08,5.23c-0.15,2.97,1.53,4.51,4.1,5.54
			c2.96,1.19,6.06,1.8,9.1,2.65c2.88,0.8,5.77,1.59,8.59,2.56c6.69,2.29,10.98,6.58,11.67,14c0.65,6.93-1.96,12.37-7.26,16.58
			c-11.33,9-31.62,6.01-39.87-5.79c-1.94-2.77-1.7-7.13,0.5-9.2c2.51-2.36,6.02-2.4,9.09,0.01c1.18,0.92,2.15,2.09,3.29,3.06
			c5.09,4.36,10.86,4.63,16.9,2.56c2.43-0.83,3.9-2.79,3.79-5.32c-0.09-2.27-1.99-3.23-4.04-3.86c-5.41-1.66-11.06-2.42-16.34-4.55
			c-5.78-2.34-10.57-5.69-12.34-12.08c-3.35-12.06,4.13-23.02,16.98-24.89C272.73,16.87,274.4,16.84,276.06,16.71z"/>
		<path class="st1" d="M331.08,54.47c0-6.82-0.11-13.64,0.05-20.46c0.06-2.61-0.76-3.56-3.37-3.38c-2.48,0.17-5.01,0.17-7.48-0.09
			c-4.18-0.45-6.37-3-6.29-6.9c0.08-3.86,2.44-6.43,6.68-6.48c11.47-0.15,22.95-0.14,34.43,0c3.73,0.04,6.59,3.24,6.64,6.76
			c0.04,3.39-2.37,6.08-6.22,6.56c-2.3,0.29-4.67,0.38-6.97,0.14c-3.14-0.32-3.93,0.88-3.89,3.91c0.16,12.64,0.07,25.28,0.06,37.93
			c0,1.49,0.04,3.02-0.26,4.46c-0.83,3.98-3.7,6.16-7.44,5.87c-3.26-0.26-5.8-2.95-5.89-6.85c-0.16-7.15-0.04-14.31-0.04-21.46
			C331.09,54.47,331.09,54.47,331.08,54.47z"/>
		<path class="st2" d="M91.34,17.08c5.49,0,10.97-0.07,16.46,0.02c4.61,0.08,7.49,2.81,7.49,6.86c0,3.93-2.48,6.27-7.19,6.64
			c-1.82,0.14-3.68,0.23-5.48,0.02c-3.45-0.39-4.62,0.91-4.57,4.44c0.18,12.3,0.07,24.6,0.07,36.91c0,1.33,0.05,2.67-0.06,3.99
			c-0.38,4.6-2.8,6.98-6.89,6.84c-3.64-0.12-6.11-2.73-6.16-7c-0.12-9.31-0.06-18.62-0.07-27.93c0-4.49-0.12-8.98,0.05-13.47
			c0.1-2.74-0.73-4.04-3.65-3.77c-1.98,0.18-3.99,0.1-5.98,0.01c-5.11-0.24-8.03-2.87-7.91-7.06c0.1-3.79,3.19-6.41,7.94-6.48
			C80.7,17.01,86.02,17.08,91.34,17.08z"/>
		<path class="st3" d="M221.63,48.94c0-7.66-0.02-15.32,0.02-22.98c0.01-1.66,0.01-3.38,0.43-4.95c0.78-2.9,2.99-4.36,5.9-4.54
			c2.74-0.18,4.81,1.04,6.01,3.58c0.64,1.37,0.97,2.8,0.97,4.34c-0.02,16.82,0.02,33.64-0.05,50.46c-0.02,4.47-1.81,7.1-4.82,7.8
			c-4.53,1.04-8.12-1.65-8.34-6.74c-0.26-6.15-0.1-12.32-0.11-18.48C221.62,54.59,221.63,51.76,221.63,48.94z"/>
		<path class="st0" d="M562.33,63.14c-1.85-2.61-2.1-4.15,1.08-6.36c7.45-5.16,10.8-12.46,8.79-21.65
			c-2.26-10.36-10.84-17.53-21.75-17.95c-6.65-0.26-13.32-0.12-19.99-0.09c-7.12,0.02-9.28,2.14-9.32,9.18
			c-0.05,7.83-0.01,15.66-0.01,23.49c0,8-0.04,15.99,0.01,23.99c0.04,5.73,2.33,8.87,6.42,9.05c4.4,0.19,6.82-2.82,7.04-8.92
			c0.11-3,0.01-6,0.03-9c0.01-0.98-0.09-2.02,0.82-2.74c1.93-1.52,10.03-0.28,11.38,1.84c3.04,4.77,5.93,9.63,9,14.38
			c2.66,4.11,6.2,5.22,9.69,3.29c3.45-1.91,4.24-6.17,1.81-10.47C565.79,68.42,564.15,65.71,562.33,63.14z M552.02,47.6
			c-2.78,0.72-5.61,0.44-8.15,0.53c-10.91-0.07-9.11,0.82-9.21-9.04c-0.09-8.43-0.02-8.45,8.42-8.42c2.82,0.01,5.66-0.07,8.44,0.31
			c4.63,0.62,7.35,3.62,7.56,7.82C559.3,43.33,556.82,46.37,552.02,47.6z"/>
		<path class="st4" d="M388.06,49.17c0.09,1.76,1.38,2.03,2.84,2.02c3.66-0.02,7.31-0.01,10.97-0.01c3.82,0,7.65,0.01,11.47,0
			c1.16,0,2.23,0.02,2.81-1.43c2.52-6.32-1.56-16.07-8.04-18.54c-5.51-2.1-10.92-1.61-15.46,2.32
			C387.89,37.66,387.75,43.42,388.06,49.17z"/>
		<path class="st0" d="M644.13,39.97c-1.7-14.05-15.02-23.91-27.95-23.18c-14.23,0.8-25.15,11.08-26.14,25.26
			c-0.38,5.47-0.06,10.98-0.06,16.48c-0.05,0-0.11,0-0.16,0c0,5.83-0.16,11.67,0.05,17.49c0.17,4.63,2.81,7.2,6.69,7.1
			c3.98-0.1,6.31-2.67,6.49-7.26c0.09-2.5,0.15-5,0.01-7.49c-0.14-2.46,0.56-3.7,3.29-3.66c7.33,0.11,14.66,0.09,21.99-0.01
			c2.18-0.03,2.97,0.77,2.89,2.91c-0.11,2.83-0.15,5.67,0.02,8.49c0.25,4.07,2.93,6.94,6.37,7.11c3.66,0.19,7.14-2.68,7.1-6.83
			C644.63,64.24,645.6,52.1,644.13,39.97z M624.75,51.16c-2.49,0.05-4.98,0.01-7.47,0.01c0-0.01,0-0.01,0-0.02
			c-3.65,0-7.31,0-10.96,0c-1.6,0-3.12-0.26-3.18-2.28c-0.16-5.54-0.11-11.14,4.48-15.19c4.2-3.69,9.19-4.36,14.47-2.72
			c5.78,1.8,8.97,6.42,9.07,13.36C631.3,52.7,631.42,51.02,624.75,51.16z"/>
		<path class="st0" d="M429.06,39.58c-1.56-13.05-14.24-23.44-27.76-22.88c-13.97,0.57-25.7,11.74-26.22,25.15
			c-0.21,5.48-0.03,10.97-0.03,16.46c-0.04,0-0.08,0-0.11,0c0,5.99-0.11,11.98,0.04,17.97c0.11,4.33,2.53,6.77,6.27,6.85
			c3.99,0.08,6.47-2.42,6.73-6.97c0.15-2.65,0.14-5.32,0.08-7.98c-0.06-2.57,1.1-3.5,3.63-3.47c7.15,0.1,14.31,0.11,21.46,0
			c2.45-0.04,3.2,0.97,3.1,3.26c-0.12,2.66-0.18,5.34,0.04,7.98c0.4,4.68,2.86,7.19,6.7,7.18c3.96-0.01,6.64-2.43,6.63-7.14
			C429.58,63.83,430.5,51.68,429.06,39.58z M416.15,49.75c-0.58,1.45-1.65,1.43-2.81,1.43c-3.82,0.01-7.65,0-11.47,0
			c-3.66,0-7.31-0.01-10.97,0.01c-1.46,0.01-2.75-0.26-2.84-2.02c-0.31-5.75-0.17-11.52,4.59-15.64c4.54-3.93,9.95-4.42,15.46-2.32
			C414.59,33.68,418.68,43.44,416.15,49.75z"/>
	</g>
</g>
</svg>
